<svg width="137" height="68">
<path style="fill:#ffffff; stroke:none;" d="M0 0L0 68L137 68L137 0L0 0z"/>
<path style="fill:#f4afc5; stroke:none;" d="M112 1L112 2L120 2L112 1z"/>
<path style="fill:#ef8eae; stroke:none;" d="M3 2L3 6L4 6L3 2z"/>
<path style="fill:#df1758; stroke:none;" d="M4 2L4 40C12.2995 40 23.9339 41.5208 30.6057 35.3619C36.4022 30.0111 32.4484 24.9224 31.0394 19C30.2375 15.6295 32.6667 12.456 31.392 9.04398C28.0409 0.074234 11.4425 2 4 2z"/>
<path style="fill:#ef8aab; stroke:none;" d="M19.6667 2.33334L20.3333 2.66666L19.6667 2.33334z"/>
<path style="fill:#df1758; stroke:none;" d="M49 2L49 6L52 6C52 18.7196 52.5954 31.1894 69 26C68.6073 38.0934 62.3575 32.5786 55 32L55 40C61.3917 40 69.3781 41.0953 74.956 37.2724C83.382 31.4975 80 14.9198 80 6L83 6L83 2L69 2C69 5.34607 70.9508 21.7932 65.8302 21.7932C59.8496 21.7932 62 5.73174 62 2L49 2z"/>
<path style="fill:#f6c1d2; stroke:none;" d="M62 2L62 21L63 21L62 2z"/>
<path style="fill:#fadae4; stroke:none;" d="M68 2L68 21L69 21L68 2z"/>
<path style="fill:#ec769c; stroke:none;" d="M108.667 2.33334L109.333 2.66666L108.667 2.33334z"/>
<path style="fill:#df1758; stroke:none;" d="M122 40L122 37C107.574 35.9123 106.503 13.7163 116 6L122 8L122 2C115.756 2 108.316 1.17835 103.214 5.56867C95.3972 12.2943 96.0273 30.9121 104.188 37.1458C109.183 40.9613 116.106 40 122 40z"/>
<path style="fill:#e85886; stroke:none;" d="M5 6L5 36L6 36L5 6z"/>
<path style="fill:#ffffff; stroke:none;" d="M17 6L17 16C21.2733 13.5014 20.9655 10.162 19 6L17 6z"/>
<path style="fill:#e64a7d; stroke:none;" d="M51 6L51 18L52 18L51 6z"/>
<path style="fill:#f095b2; stroke:none;" d="M80 6L80 30L81 30L80 6z"/>
<path style="fill:#eb6d96; stroke:none;" d="M98.3333 13.6667L98.6667 14.3333L98.3333 13.6667z"/>
<path style="fill:#f8cad9; stroke:none;" d="M110 14L110 27L111 27L110 14M97 17L97 22L98 22L97 17z"/>
<path style="fill:#f3a5be; stroke:none;" d="M51 18L51 21L52 21L51 18z"/>
<path style="fill:#ef89aa; stroke:none;" d="M17.6667 20.3333L18.3333 20.6667L17.6667 20.3333z"/>
<path style="fill:#ffffff; stroke:none;" d="M17 21L17 35C23.7992 32.936 23.7992 23.064 17 21z"/>
<path style="fill:#f196b4; stroke:none;" d="M98 26L98 29L99 29L98 26z"/>
<path style="fill:#ee82a5; stroke:none;" d="M58.6667 27.3333L59.3333 27.6667L58.6667 27.3333z"/>
<path style="fill:#f3aac2; stroke:none;" d="M64.6667 27.3333L65.3333 27.6667L64.6667 27.3333z"/>
<path style="fill:#e85b89; stroke:none;" d="M54 32L54 40L55 40L54 32z"/>
<path style="fill:#ee83a6; stroke:none;" d="M17.6667 35.3333L18.3333 35.6667L17.6667 35.3333z"/>
<path style="fill:#ef8eae; stroke:none;" d="M3 36L3 40L4 40L3 36z"/>
<path style="fill:#ef8dad; stroke:none;" d="M116 36L116 37L122 37L116 36z"/>
<path style="fill:#ec779d; stroke:none;" d="M20 39L20 40L23 40L20 39z"/>
<path style="fill:#eb6e97; stroke:none;" d="M69.6667 39.3333L70.3333 39.6667L69.6667 39.3333z"/>
<path style="fill:#c7c7c8; stroke:none;" d="M5.66667 45.3333L6.33333 45.6667L5.66667 45.3333z"/>
<path style="fill:#c2c2c2; stroke:none;" d="M17 45L17 46L19 55L20 55C19.9969 51.0129 20.5976 47.3323 17 45z"/>
<path style="fill:#2e2e2f; stroke:none;" d="M45 45L45 58L47 58L50 52L50 51L47 51L47 45L45 45z"/>
<path style="fill:#acacad; stroke:none;" d="M63 45L59 47L59 48C61.4499 47.8795 64.0951 47.9051 63 45z"/>
<path style="fill:#2e2e2f; stroke:none;" d="M64 45L59 48L59 49L64 49L58 57L70 57L66 49L70 49L70 48L64 45z"/>
<path style="fill:#686869; stroke:none;" d="M65 45L65 48L66 48L65 45z"/>
<path style="fill:#2e2e2f; stroke:none;" d="M74 45L74 51L70 51L70 53L74 53L74 58L76 58L76 45L74 45z"/>
<path style="fill:#d7d7d7; stroke:none;" d="M102 45L97 47L97 48C99.4989 47.9586 103.235 48.2752 102 45z"/>
<path style="fill:#2e2e2f; stroke:none;" d="M103 45L97 48L97 49L103 49L103 52L97 52L97 53L103 53L103 61L105 61L105 45L103 45z"/>
<path style="fill:#e6e6e6; stroke:none;" d="M105 45L105 61L106 61L105 45z"/>
<path style="fill:#6d6d6e; stroke:none;" d="M121 45L121 48L122 48L121 45z"/>
<path style="fill:#2e2e2f; stroke:none;" d="M122 45L116 48L116 49L129 49L129 48L122 45z"/>
<path style="fill:#b6b6b6; stroke:none;" d="M123 45C123.729 48.4029 125.806 47.9865 129 48L129 47L123 45z"/>
<path style="fill:#c7c7c8; stroke:none;" d="M130 45L130 67L131 67L130 45z"/>
<path style="fill:#39393a; stroke:none;" d="M131 45L131 67L133 67L133 45L131 45z"/>
<path style="fill:#c6c6c6; stroke:none;" d="M4 46L4 55L5 55L4 46z"/>
<path style="fill:#2e2e2f; stroke:none;" d="M5 46L5 54L19 54L19 46L17 49L5 46z"/>
<path style="fill:#b9b9ba; stroke:none;" d="M31 46L31 47L41 47L31 46z"/>
<path style="fill:#838384; stroke:none;" d="M88 46L88 58L89 58L89 47L90 47L90 56L91 56L91 46L88 46z"/>
<path style="fill:#2e2e2f; stroke:none;" d="M31 47L31 56L43 55L43 54L33 55L33 48L41 48L31 47z"/>
<path style="fill:#acacad; stroke:none;" d="M66 47L66 48L70 48L66 47z"/>
<path style="fill:#2e2e2f; stroke:none;" d="M89 47L89 58L100 57L100 56L90 56L89 47z"/>
<path style="fill:#b6b6b6; stroke:none;" d="M116 47L116 48L121 48L116 47z"/>
<path style="fill:#8b8b8b; stroke:none;" d="M7 48L7 49L17 49L7 48z"/>
<path style="fill:#9f9fa0; stroke:none;" d="M33 48L33 55L39 55L39 54L34 54L34 49L41 49L33 48z"/>
<path style="fill:#acacad; stroke:none;" d="M59 49L59 50L64 51L59 49M66 49L66 50L70 50L66 49z"/>
<path style="fill:#7f7f80; stroke:none;" d="M97 49L97 50L103 50L97 49z"/>
<path style="fill:#a2a2a3; stroke:none;" d="M116 49L116 50L129 50L116 49z"/>
<path style="fill:#dadada; stroke:none;" d="M7 50L7 51L17 51L7 50z"/>
<path style="fill:#acacad; stroke:none;" d="M47 50L47 51L50 51L47 50z"/>
<path style="fill:#ffffff; stroke:none;" d="M7 51L7 52L17 52L7 51z"/>
<path style="fill:#aeaeae; stroke:none;" d="M69.3333 51.6667L69.6667 52.3333L69.3333 51.6667z"/>
<path style="fill:#2e2e2f; stroke:none;" d="M121 61L116 61L116 62L129 60L123 61C124.479 58.9454 127.442 56.1197 126.338 53.3032C125.052 50.0202 118.52 50.59 117.917 54.1088C117.526 56.3877 120.042 59.0682 121 61z"/>
<path style="fill:#c7c7c8; stroke:none;" d="M7 52L7 53L17 53L7 52z"/>
<path style="fill:#a2a2a3; stroke:none;" d="M47 52L47 53L50 53L47 52z"/>
<path style="fill:#c1c1c1; stroke:none;" d="M121 52L121 53L124 53L121 52z"/>
<path style="fill:#8b8b8b; stroke:none;" d="M67 53L68 54L67 53z"/>
<path style="fill:#686869; stroke:none;" d="M97 53L97 54L103 54L97 53z"/>
<path style="fill:#bebebf; stroke:none;" d="M119 53L119 56L120 56L119 53z"/>
<path style="fill:#ffffff; stroke:none;" d="M120 53L120 56L125 56L125 53L120 53z"/>
<path style="fill:#7c7c7c; stroke:none;" d="M127 53L127 56L128 56L127 53z"/>
<path style="fill:#969697; stroke:none;" d="M5 54L5 55L19 55L5 54z"/>
<path style="fill:#787878; stroke:none;" d="M41.6667 55.3333L42.3333 55.6667L41.6667 55.3333z"/>
<path style="fill:#9e9e9f; stroke:none;" d="M59 55L60 56L59 55z"/>
<path style="fill:#626263; stroke:none;" d="M70.3333 55.6667L70.6667 56.3333L70.3333 55.6667z"/>
<path style="fill:#acacad; stroke:none;" d="M95 55L95 56L100 56L95 55z"/>
<path style="fill:#7e7e7f; stroke:none;" d="M2 56L2 57L22 57L2 56z"/>
<path style="fill:#c3c3c3; stroke:none;" d="M31 56L31 57L39 57L31 56z"/>
<path style="fill:#ababac; stroke:none;" d="M120 56L120 57L124 57L120 56z"/>
<path style="fill:#2e2e2f; stroke:none;" d="M2 57L2 58L11 58L11 62L13 62L13 58L22 58L2 57z"/>
<path style="fill:#999999; stroke:none;" d="M96 57L96 58L99 58L96 57z"/>
<path style="fill:#a7a7a8; stroke:none;" d="M118 57L119 58L118 57z"/>
<path style="fill:#d7d7d7; stroke:none;" d="M2 58L2 59L11 59L2 58M13 58L13 62L14 62L14 59L22 59L13 58z"/>
<path style="fill:#686869; stroke:none;" d="M36 58L36 59L42 59L36 58z"/>
<path style="fill:#b4b4b4; stroke:none;" d="M42.6667 58.3333L43.3333 58.6667L42.6667 58.3333z"/>
<path style="fill:#b8b8b8; stroke:none;" d="M66 58L66 59L70 59L66 58z"/>
<path style="fill:#d7d7d7; stroke:none;" d="M73 60L76 58L73 60z"/>
<path style="fill:#2e2e2f; stroke:none;" d="M35.3372 60.027C29.4163 64.1619 41.7125 67.7445 45.392 64.8248C50.9569 60.409 38.672 57.6981 35.3372 60.027z"/>
<path style="fill:#8e8e8e; stroke:none;" d="M45 59L46 60L45 59z"/>
<path style="fill:#2e2e2f; stroke:none;" d="M64.3225 60.027C57.8333 64.404 69.9167 67.555 73.6628 64.9761C79.4282 61.007 67.8933 57.6185 64.3225 60.027z"/>
<path style="fill:#ababac; stroke:none;" d="M91.6667 59.3333L92.3333 59.6667L91.6667 59.3333z"/>
<path style="fill:#8b8b8b; stroke:none;" d="M123 59L127 61L127 60L123 59z"/>
<path style="fill:#afafaf; stroke:none;" d="M4 60L4 66L5 66L4 60z"/>
<path style="fill:#5c5c5d; stroke:none;" d="M5 60L6 64L7 64L5 60z"/>
<path style="fill:#ffffff; stroke:none;" d="M35 61L35 64L45 64L45 61L35 61z"/>
<path style="fill:#9c9c9c; stroke:none;" d="M62 60L63 61L62 60z"/>
<path style="fill:#a8a8a9; stroke:none;" d="M66 60L66 61L72 61L66 60z"/>
<path style="fill:#2e2e2f; stroke:none;" d="M91 60L91 66L105 66L105 65L93 65L93 60L91 60z"/>
<path style="fill:#c4c4c4; stroke:none;" d="M93 60L93 64L94 64L93 60z"/>
<path style="fill:#c7c7c8; stroke:none;" d="M115 63L116 63L121 61C118.238 59.4085 115.714 59.6685 115 63z"/>
<path style="fill:#7f7f80; stroke:none;" d="M129.333 60.6667L129.667 61.3333L129.333 60.6667z"/>
<path style="fill:#2e2e2f; stroke:none;" d="M5 61L5 66L19 66L19 65C13.3212 65 9.06276 65.4347 5 61z"/>
<path style="fill:#8f8f8f; stroke:none;" d="M64 61L65 62L64 61z"/>
<path style="fill:#ffffff; stroke:none;" d="M64 62L64 64C68.1096 65.2004 70.9377 65.1266 74 62L64 62z"/>
<path style="fill:#b6b6b6; stroke:none;" d="M11.6667 62.3333L12.3333 62.6667L11.6667 62.3333z"/>
<path style="fill:#838384; stroke:none;" d="M116 62L116 63L123 63L116 62z"/>
<path style="fill:#a0a0a0; stroke:none;" d="M73 63L74 64L73 63z"/>
<path style="fill:#8b8b8b; stroke:none;" d="M7 64L7 65L20 66L7 64z"/>
<path style="fill:#8b8b8c; stroke:none;" d="M75 64L76 65L75 64z"/>
<path style="fill:#8b8b8b; stroke:none;" d="M93 64L93 65L106 66L93 64z"/>
<path style="fill:#949495; stroke:none;" d="M45 65L46 66L45 65z"/>
<path style="fill:#9c9c9c; stroke:none;" d="M74 65L75 66L74 65z"/>
<path style="fill:#c7c7c8; stroke:none;" d="M5 66L5 67L20 67L5 66z"/>
<path style="fill:#6d6d6e; stroke:none;" d="M36 66L36 67L42 67L36 66z"/>
<path style="fill:#bababa; stroke:none;" d="M42.6667 66.3333L43.3333 66.6667L42.6667 66.3333z"/>
<path style="fill:#707071; stroke:none;" d="M65 66L65 67L73 67L65 66z"/>
<path style="fill:#c7c7c8; stroke:none;" d="M91 66L91 67L106 67L91 66z"/>
</svg>